<?xml version="1.0" encoding="utf-8"?>
<!-- Generator: Adobe Illustrator 22.1.0, SVG Export Plug-In . SVG Version: 6.00 Build 0)  -->
<svg version="1.1" id="Слой_1" xmlns="http://www.w3.org/2000/svg" xmlns:xlink="http://www.w3.org/1999/xlink" x="0px" y="0px"
	 viewBox="0 0 226 238" style="enable-background:new 0 0 226 238;" xml:space="preserve">
<style type="text/css">
	.st0{fill:yellow;}
</style>
<path class="st0" d="M48.6,88.4c2.4,2.4,5.6,5.6,9.4,9.4c2.4,2.4,8.6,8.5,15.2,15.1c26.6,26.7,39.9,40,40.6,40.9
	c0.3,0.4,0.5,0.5,0.8,0.8c0.4,0.3,0.7,0.6,1.1,0.6c0.4,0,0.6-0.3,1-0.7c1.2-1.2,1.8-1.9,2.5-2.7c0.2-0.2,0.4-0.4,0.7-0.8
	c0.5-0.5,0.6-0.8,1.4-1.6c1.3-1.3,1.4-1.3,3.7-3.5c0.5-0.5,1-1,1.9-1.9c0.5-0.5,0.7-0.6,1.3-1.2c0,0,1.1-1.1,2.1-2
	c1-1,1.6-1.6,2.8-2.8c1.3-1.3,2.6-2.7,3.9-4c2.5-2.6,3.7-3.8,4.1-4.2c2.6-2.6,3.4-3.3,6.1-5.9c2.1-2,2.3-2.3,6-6
	c5.5-5.5,5.8-5.7,9.9-9.8c3.9-3.9,4.2-4.4,7.9-8.1c3.4-3.4,5.1-5.1,5.5-5.4c0,0,1.7-1.3,3.9-3.8c0.1-0.1,0.2-0.3,0.4-0.5
	c0.5-0.6,0.5-0.7,0.5-0.7c0-0.1,0-0.3-0.6-0.9c-0.3-0.3-0.4-0.5-0.6-0.6c-0.7-0.7-1.6-1.8-2.9-3.1c-0.3-0.4-0.7-0.8-2.8-2.8
	c-2.3-2.2-4-3.9-4.1-4c-1.9-1.8-3.5-3.4-6.7-6.7c-3.8-3.8-5.5-5.6-8.1-8.3c-3.8-3.9-6.5-6.5-11.1-11c-4.5-4.4-13.6-13.3-17.5-17.2
	c-1.9-2-2.9-2.9-3.6-3.7c-0.8-0.9-1.4-1.7-2.6-2.8c-0.6-0.5-0.6-0.5-1.8-1.6c-1.7-1.6-1.6-1.6-2-1.8c-0.2-0.1-1.7-0.9-3.5-0.5
	c0,0-0.6,0.2-1.2,0.5C110.1,26.3,64.6,72.2,48.6,88.4z"/>
<path class="st0" d="M13.1,124c-0.9,1.6-1,3.8,0,5c0.1,0.1,0.4,0.4,0.9,0.9c0.6,0.6,1,1.1,1.2,1.2c1.1,1.1,2.3,2.4,2.7,2.8
	c5.3,5.7,16.1,16,16.1,16c1.9,1.8,11.2,11.2,30,30.2c13,13.1,26.8,27,31.9,31.9c2.1,2,4.1,3.9,6.3,6.2c0.2,0.2,2,2.2,3.8,3.8
	c0.9,0.9,1.3,1.3,1.3,1.3c1.2,1.1,1.3,1.2,1.9,1.8c0.4,0.4,0.6,0.7,1.1,1.2c0.3,0.3,0.5,0.5,0.8,0.8c0.5,0.4,1.1,0.8,1.4,1
	c1.2,0.6,3.1,0.7,4.5-0.1c0.3-0.2,0.4-0.3,2-1.9c1.4-1.4,2.1-2.1,2.1-2.2c3.2-3.4,26.1-26,26.1-26c10.6-10.5,15.9-15.7,22.1-22
	c3.8-3.9,9.6-9.9,16.7-16.9c0.9-0.9,2.6-2.5,5.1-5c1.3-1.3,5.2-5.2,10.4-10.4c2.8-2.8,4.2-4.3,6.1-6.2c1-1.1,3.6-3.8,3.6-3.8
	c0,0,0.7-0.7,1.2-1.2c0.5-0.6,0.7-1.2,0.9-1.7c1.9-4.7,0-8.8,0-8.8c-0.7-1.2-1.4-2.1-1.9-2.7c-0.4-0.5-0.8-0.9-1.5-1.6
	c-0.8-0.8-1-1-1.7-1.6c-0.4-0.4-0.8-0.8-2-2.1c-1-1.1-1.5-1.6-2.4-2.6c0,0-2.2-2.5-6.7-6.8c-1.3-1.2-1.9-1.8-2.9-1.8
	c-0.8,0.1-1.5,0.7-2.9,2c-0.5,0.5-0.5,0.5-1.7,1.7c-1.1,1.1-1.3,1.3-2,2c-0.9,0.9-1.2,1.4-2.1,2.3c-1,1.2-1.9,2.1-3.7,3.9
	c-1.7,1.7-3,3-3.4,3.4c-2.6,2.6-4.2,4.2-7.7,7.8c-19.1,19.5-34.3,34.4-34.3,34.4c-2.3,2.2-2.1,2-2.5,2.4
	c-5.6,5.7-11.3,11.4-16.9,17.2c-0.2,0.2-0.8,0.8-1.5,0.8c-0.5,0-0.9-0.4-1.6-1c-1-1-1.7-1.8-2-2.1c-0.5-0.6-0.5-0.5-2.5-2.4
	c-1.3-1.2-2-1.9-2.5-2.4c-1.8-1.8-1.8-2.1-4.3-4.7c-0.7-0.8-1.1-1.1-2-2.1c0,0-1-1.2-2-2.2l0,0c-0.7-0.8-1.2-1.3-1.7-1.8
	c-0.4-0.4-0.8-0.8-1.1-1.1c0,0-3.1-3.1-9.4-9.4c-14.5-14.5-16.6-16.6-17.9-18c-3.7-3.8-5.6-5.7-7.2-7.3c-2.9-3.1-4-4.3-6.6-6.8
	c-1.5-1.5-1.6-1.5-4.4-4.3c-2.5-2.4-2.4-2.4-4.7-4.6c-3.1-3-3.1-3-3.9-3.8c-0.9-1-1.9-1.9-2.7-2.9c0,0-0.4-0.4-1.1-1
	c-0.8-0.7-1-0.8-1.1-0.8c-0.2-0.1-0.8-0.4-1.6-0.2c-0.5,0.1-0.8,0.5-1.4,1.1c-1.1,1.2-1.7,1.8-1.7,1.8c-0.3,0.3-2.7,2.8-7.6,7.7
	c-2.3,2.3-4.6,4.7-6.9,7c-0.9,0.9-1.8,1.8-2.7,2.7C13.4,123.6,13.3,123.6,13.1,124z"/>
</svg>
