<?xml version="1.0" encoding="iso-8859-1"?>
<!-- Generator: Adobe Illustrator 19.0.0, SVG Export Plug-In . SVG Version: 6.00 Build 0)  -->
<svg version="1.1" id="Layer_1" xmlns="http://www.w3.org/2000/svg" xmlns:xlink="http://www.w3.org/1999/xlink" x="0px" y="0px"
	 viewBox="0 0 490 490" style="enable-background:new 0 0 490 490;" xml:space="preserve">
<g>
	<g>
		<path d="M342.2,328.3c-3-2.1-6.1-4.2-9.3-6.3c-18.8-12.5-35.1-21-41.9-24.5V254c6.4-5.4,10.2-13.4,10.2-22v-50.6
			c0-28.4-23.1-51.6-51.6-51.6h-10.9c-28.4,0-51.6,23.1-51.6,51.6V232c0,8.5,3.8,16.5,10.2,22v43.5c-7.9,4-27.5,14.3-49.2,29.4
			c-2.7,1.9-3.4,5.6-1.5,8.4c1.9,2.8,5.5,3.4,8.3,1.5c23.3-16.2,43.9-26.7,49.7-29.5c2.9-1.4,4.6-4.2,4.6-7.4v-48.8c0-2-1-3.9-2.7-5
			c-4.7-3.1-7.5-8.4-7.5-14v-50.6c0-21.8,17.7-39.6,39.6-39.6h10.9c21.8,0,39.6,17.7,39.6,39.6v50.6c0,5.6-2.8,10.9-7.5,14
			c-1.7,1.1-2.7,3-2.7,5v48.8c0,3.2,1.8,6,4.6,7.4c4.8,2.4,22.2,11.1,42.7,24.7c3.1,2,6.1,4.1,9,6.1c1.1,0.7,2.3,1.1,3.5,1.1
			c1.9,0,3.7-0.9,4.9-2.5C345.5,334,344.9,330.2,342.2,328.3z"/>
	</g>
</g>
<g>
	<g>
		<path d="M484,239h-49c-3.1-100.3-83.9-181.4-184-185V6c0-3.3-2.7-6-6-6s-6,2.7-6,6v48C137.9,56.6,56.1,138.1,53,239H6
			c-3.3,0-6,2.7-6,6s2.7,6,6,6h47c3.1,100.9,84.9,182.4,186,185v48c0,3.3,2.7,6,6,6s6-2.7,6-6v-48c100.2-3.6,180.9-84.7,184-185h49
			c3.3,0,6-2.7,6-6S487.3,239,484,239z M244,424.1c-98.8,0-179.1-80.3-179.1-179.1S145.3,65.9,244,65.9
			c98.8,0,179.1,80.3,179.1,179.1S342.8,424.1,244,424.1z"/>
	</g>
</g>
<g>
</g>
<g>
</g>
<g>
</g>
<g>
</g>
<g>
</g>
<g>
</g>
<g>
</g>
<g>
</g>
<g>
</g>
<g>
</g>
<g>
</g>
<g>
</g>
<g>
</g>
<g>
</g>
<g>
</g>
</svg>
